# xmcd CD database file
#
# Track frame offsets:
#	150
#	18106
#	30292
#	46802
#	56452
#	71822
#	88540
#	101561
#	114795
#	132008
#	144028
#
# Disc length: 2139 seconds
#
# Revision: 3
# Processed by: cddbd v1.5.2PL0 Copyright (c) Steve Scherf et al.
# Submitted via: CDex 1.51
#
DISCID=7908590b
DTITLE=Clint Black - Super Hits
DYEAR=1998
DGENRE=Country
TTITLE0=Half Way Up
TTITLE1=One Emotion
TTITLE2=A Bad Goodbye Duet With Wynonna
TTITLE3=You Walked By
TTITLE4=Untanglin' In My Mind
TTITLE5=Chain Of Fools
TTITLE6=A Change In The Air
TTITLE7=Life Gets Away
TTITLE8=Desperado
TTITLE9=I'll Take Texas
TTITLE10=Tuckered Out
EXTD=YEAR: 1998
EXTT0=
EXTT1=
EXTT2=
EXTT3=
EXTT4=
EXTT5=
EXTT6=
EXTT7=
EXTT8=
EXTT9=
EXTT10=
PLAYORDER=
